<svg xmlns="http://www.w3.org/2000/svg" viewBox="0 0 859.09 361.6"><defs><style>.cls-1{fill:#0c5d66;}.cls-2{fill:#2d949e;}</style></defs><g id="Camada_2" data-name="Camada 2"><g id="Camada_1-2" data-name="Camada 1"><path class="cls-1" d="M618.23,3.64q72.25,0,97.58,17.56Q740.91,39,732.08,71.33L671.9,290.78q-9.3,33-43.68,50.13-34.85,17.37-107.34,17.36H204.43q-72.72,0-97.58-17.36T90.59,290.78L150.76,71.33q8.84-32.76,43.68-50.13Q229.3,3.65,301.78,3.64ZM633.1,61.27q4.65-17.37-1.86-23.09Q625,32.65,598,32.65H306q-25.56,0-35.78,5.72-10.45,5.93-14.87,22.9L189.56,300.65q-5.12,18.15,1.86,23.48,6.51,5.53,33.23,5.53H516.7q25.56,0,35.78-5.92,10.21-6.12,14.87-23.09Z"/><path class="cls-2" d="M857.13,202.57,838,149.68q-17.41-49.53-78-78.74C719.6,51.47,674.4,34.88,623.54,33.24c-50.59-1.63-96-.41-155.85-.21-54.55.19-106.09-.38-151.37-.38Q289,32.65,278,38.37q-11,5.93-15.67,22.9l-17.41,59.2q-5.22,18.17,1.74,23.49,7,5.52,35.32,5.52h282.1q84.82,0,113.43,14c18.91,9.48,22.34,28.15,14.55,55.12l-19,71q-12,40.45-48.51,54.66c-24.71,9.35-61.51,18.14-121.2,17.28-46.18-.67-92.7-.25-154.68-.11-74.62.17-123.13-.72-174.36-3.16-59.29-2.82-97-28.41-132.11-51.7S-6.15,246.25,2.64,195.46H3.88q24.12,63.35,81,92.26C122.75,307,165.31,322.37,213.34,326c45.31,3.43,97.15,3.68,150.72,3.68,53.41,0,98.45,0,142.56,0q27.87,0,38.81-5.92,10.46-6.12,15.67-23.09l20.15-69.27q5-17.56-1.49-23.29-6.72-5.33-35.82-5.33H262.34q-85.57,0-113.93-14.2c-18.91-9.48-22.9-26.72-14.93-53.55L149.9,72.32q11.94-40.26,48.51-54.47C223,8.38,231.08-.21,320.84.34c42.84.27,95.36-.7,158.92-.15,65.26.56,125.52-2.58,183,4.92a338.43,338.43,0,0,1,145.5,54.38Q869.08,99.75,857.13,202.57Z"/></g></g></svg>